<svg width="16" height="128" viewBox="0 0 640 5120" xmlns="http://www.w3.org/2000/svg" xmlns:xlink="http://www.w3.org/1999/xlink">
  <!--!Font Awesome Free v7.2.0 by @fontawesome - https://fontawesome.com License - https://fontawesome.com/license/free Copyright 2026 Fonticons, Inc.-->
  <defs>
    <g id="up">
      <!--
        Icon Name: circle-arrow-up
        Icon Family: classic
        Icon Style: solid
      -->
      <path d="M320 576C461.4 576 576 461.4 576 320C576 178.6 461.4 64 320 64C178.6 64 64 178.6 64 320C64 461.4 178.6 576 320 576zM337 199L417 279C426.4 288.4 426.4 303.6 417 312.9C407.6 322.2 392.4 322.3 383.1 312.9L344.1 273.9L344.1 424C344.1 437.3 333.4 448 320.1 448C306.8 448 296.1 437.3 296.1 424L296.1 273.9L257.1 312.9C247.7 322.3 232.5 322.3 223.2 312.9C213.9 303.5 213.8 288.3 223.2 279L303.2 199C312.6 189.6 327.8 189.6 337.1 199z"/>
    </g>
    <g id="down">
      <!--
        Icon Name: circle-arrow-down
        Icon Family: classic
        Icon Style: solid
      -->
      <path d="M320 576C461.4 576 576 461.4 576 320C576 178.6 461.4 64 320 64C178.6 64 64 178.6 64 320C64 461.4 178.6 576 320 576zM303 441L223 361C213.6 351.6 213.6 336.4 223 327.1C232.4 317.8 247.6 317.7 256.9 327.1L295.9 366.1L295.9 216C295.9 202.7 306.6 192 319.9 192C333.2 192 343.9 202.7 343.9 216L343.9 366.1L382.9 327.1C392.3 317.7 407.5 317.7 416.8 327.1C426.1 336.5 426.2 351.7 416.8 361L336.8 441C327.4 450.4 312.2 450.4 302.9 441z"/>
    </g>
    <g id="right">
      <!--
        Icon Name: circle-arrow-right
        Icon Family: classic
        Icon Style: solid
      -->
      <path d="M320 576C461.4 576 576 461.4 576 320C576 178.6 461.4 64 320 64C178.6 64 64 178.6 64 320C64 461.4 178.6 576 320 576zM361 417C351.6 426.4 336.4 426.4 327.1 417C317.8 407.6 317.7 392.4 327.1 383.1L366.1 344.1L216 344.1C202.7 344.1 192 333.4 192 320.1C192 306.8 202.7 296.1 216 296.1L366.1 296.1L327.1 257.1C317.7 247.7 317.7 232.5 327.1 223.2C336.5 213.9 351.7 213.8 361 223.2L441 303.2C450.4 312.6 450.4 327.8 441 337.1L361 417.1z"/>
    </g>
    <g id="left">
      <!--
        Icon Name: circle-arrow-left
        Icon Family: classic
        Icon Style: solid
      -->
      <path d="M320 576C461.4 576 576 461.4 576 320C576 178.6 461.4 64 320 64C178.6 64 64 178.6 64 320C64 461.4 178.6 576 320 576zM199 303L279 223C288.4 213.6 303.6 213.6 312.9 223C322.2 232.4 322.3 247.6 312.9 256.9L273.9 295.9L424 295.9C437.3 295.9 448 306.6 448 319.9C448 333.2 437.3 343.9 424 343.9L273.9 343.9L312.9 382.9C322.3 392.3 322.3 407.5 312.9 416.8C303.5 426.1 288.3 426.2 279 416.8L199 336.8C189.6 327.4 189.6 312.2 199 302.9z"/>
    </g>
  </defs>
  <use xlink:href="#up" x="0" y="0" fill="#666666" />
  <use xlink:href="#up" x="0" y="640" fill="#447e9b" />
  <use xlink:href="#down" x="0" y="1280" fill="#666666" />
  <use xlink:href="#down" x="0" y="1920" fill="#447e9b" />
  <use xlink:href="#left" x="0" y="2560" fill="#666666" />
  <use xlink:href="#left" x="0" y="3200" fill="#447e9b" />
  <use xlink:href="#right" x="0" y="3840" fill="#666666" />
  <use xlink:href="#right" x="0" y="4480" fill="#447e9b" />
</svg>
